<svg width="698" height="679" viewBox="0 0 698 679" fill="none" xmlns="http://www.w3.org/2000/svg">
<g filter="url(#filter0_d_201_261)">
<path opacity="0.0526316" d="M54.2316 547.194C68.9594 566.788 116.031 599.577 186.495 573.977C274.575 541.978 308.641 457.156 387.254 413.175C445.276 380.714 601.184 331.988 690.833 385.831" stroke="black" stroke-width="1.45842"/>
<path opacity="0.105263" d="M39.7046 506.117C52.3036 527.143 95.69 564.672 168.444 546.578C259.386 523.961 302.132 443.165 384.911 407.642C446.009 381.424 606.156 349.261 689.686 412.18" stroke="black" stroke-width="1.45842"/>
<path opacity="0.157895" d="M28.7298 464.486C39.062 486.714 78.2879 528.572 152.535 518.183C245.343 505.195 296.3 429.31 382.339 402.635C445.842 382.946 608.474 367.7 684.969 439.006" stroke="black" stroke-width="1.45842"/>
<path opacity="0.210526" d="M21.3461 422.675C29.2981 445.861 63.9337 491.59 138.86 489.018C232.517 485.804 291.127 415.66 379.483 398.125C444.696 385.182 608.031 387.019 676.654 465.93" stroke="black" stroke-width="1.45842"/>
<path opacity="0.263158" d="M17.5519 381.06C23.0368 404.95 52.7026 454.05 127.487 459.324C220.967 465.917 286.588 402.284 376.293 394.08C442.502 388.025 604.75 406.924 664.749 492.576" stroke="black" stroke-width="1.45842"/>
<path opacity="0.315789" d="M17.3075 340.016C20.2651 364.349 44.6361 416.28 118.46 429.343C210.739 445.671 282.651 389.246 372.722 390.463C439.202 391.362 598.585 427.118 649.302 518.572" stroke="black" stroke-width="1.45842"/>
<path opacity="0.368421" d="M20.5335 299.911C20.9314 324.419 39.7407 378.614 111.794 399.321C201.861 425.205 279.278 376.607 368.728 387.233C434.75 395.075 589.522 447.295 630.402 543.55" stroke="black" stroke-width="1.45842"/>
<path opacity="0.421053" d="M27.1132 261.102C24.9471 285.518 37.9884 341.381 107.483 369.507C194.351 404.664 276.423 364.424 364.273 384.342C429.113 399.042 577.579 467.154 608.173 567.155" stroke="black" stroke-width="1.45842"/>
<path opacity="0.473684" d="M36.892 223.932C32.1856 247.988 39.3162 304.909 105.49 340.145C188.207 384.189 274.036 352.748 359.323 381.74C422.271 403.138 562.804 486.396 582.778 589.046" stroke="black" stroke-width="1.45842"/>
<path opacity="0.526316" d="M49.682 188.728C42.4868 212.16 43.6285 269.514 105.757 311.474C183.417 363.924 272.062 341.626 353.851 379.374C414.217 407.235 545.278 504.726 554.413 608.902" stroke="black" stroke-width="1.45842"/>
<path opacity="0.578947" d="M65.2605 155.792C55.6554 178.344 50.7957 235.503 108.198 283.727C179.95 344.007 270.44 331.098 347.835 377.188C404.959 411.206 525.111 521.863 523.306 626.423" stroke="black" stroke-width="1.45842"/>
<path opacity="0.631579" d="M83.3753 125.405C71.4655 146.829 60.6576 203.167 112.704 257.127C177.762 324.577 269.106 321.198 341.26 375.125C394.515 414.928 502.442 537.538 489.717 641.337" stroke="black" stroke-width="1.45842"/>
<path opacity="0.684211" d="M103.746 97.8171C89.6623 117.879 73.0247 172.779 119.146 231.884C176.797 305.764 267.994 311.951 334.115 373.126C382.918 418.277 477.437 551.497 453.933 653.397" stroke="black" stroke-width="1.45842"/>
<path opacity="0.736842" d="M126.068 73.2483C109.964 91.7281 87.6792 144.588 127.37 208.19C176.982 287.692 267.033 303.378 326.398 371.129C370.213 421.134 450.29 563.504 416.262 662.389" stroke="black" stroke-width="1.45842"/>
<path opacity="0.789474" d="M150.015 51.8875C132.067 68.5827 104.379 118.824 137.204 186.226C178.235 270.479 266.152 295.491 318.11 369.076C356.458 423.388 421.214 573.348 377.037 668.135" stroke="black" stroke-width="1.45842"/>
<path opacity="0.842105" d="M175.242 33.8855C155.648 48.6133 122.86 95.6849 148.459 166.149C180.458 254.229 265.28 288.295 309.261 366.908C341.722 424.93 390.449 580.838 336.605 670.487" stroke="black" stroke-width="1.45842"/>
<path opacity="0.894737" d="M201.392 19.3587C180.366 31.9577 142.837 75.3441 160.93 148.098C183.548 239.041 264.344 281.786 299.866 364.565C326.085 425.663 358.248 585.81 295.328 669.34" stroke="black" stroke-width="1.45842"/>
<path opacity="0.947368" d="M228.096 8.38402C205.868 18.7161 164.009 57.942 174.399 132.189C187.386 224.997 263.272 275.954 289.947 361.993C309.635 425.496 324.882 588.128 253.576 664.624" stroke="black" stroke-width="1.45842"/>
<path d="M254.979 1.00009C231.793 8.95214 186.064 43.5878 188.636 118.514C191.85 212.171 261.994 270.781 279.53 359.137C292.472 424.35 290.636 587.685 211.724 656.308" stroke="black" stroke-width="1.45842"/>
</g>
<defs>
<filter id="filter0_d_201_261" x="12.5836" y="0.310333" width="682.625" height="678.552" filterUnits="userSpaceOnUse" color-interpolation-filters="sRGB">
<feFlood flood-opacity="0" result="BackgroundImageFix"/>
<feColorMatrix in="SourceAlpha" type="matrix" values="0 0 0 0 0 0 0 0 0 0 0 0 0 0 0 0 0 0 127 0" result="hardAlpha"/>
<feOffset dy="4"/>
<feGaussianBlur stdDeviation="2"/>
<feComposite in2="hardAlpha" operator="out"/>
<feColorMatrix type="matrix" values="0 0 0 0 0 0 0 0 0 0 0 0 0 0 0 0 0 0 0.25 0"/>
<feBlend mode="normal" in2="BackgroundImageFix" result="effect1_dropShadow_201_261"/>
<feBlend mode="normal" in="SourceGraphic" in2="effect1_dropShadow_201_261" result="shape"/>
</filter>
</defs>
</svg>
